<svg width="20" height="22" viewBox="0 0 20 22" fill="none" xmlns="http://www.w3.org/2000/svg">
<path d="M0 22.0003V19.0003H20V22.0003H0ZM4 14.4138H5.2365L13.5365 6.12905L12.9078 5.4908L12.2848 4.8773L4 13.1773V14.4138ZM2.5 15.9138V12.5388L13.7098 1.34455C13.8546 1.19971 14.019 1.09013 14.203 1.0158C14.3868 0.941464 14.5782 0.904297 14.777 0.904297C14.976 0.904297 15.1687 0.941464 15.355 1.0158C15.5413 1.09013 15.7121 1.20488 15.8673 1.36005L17.0693 2.5773C17.2244 2.72213 17.3366 2.88805 17.4058 3.07505C17.4749 3.26188 17.5095 3.45505 17.5095 3.65455C17.5095 3.84155 17.4744 4.02746 17.4042 4.2123C17.3341 4.3973 17.2224 4.56638 17.0693 4.71955L5.875 15.9138H2.5ZM13.5365 6.12905L12.9078 5.4908L12.2848 4.8773L13.5365 6.12905Z" fill="#050505"/>
</svg>
