<svg width="27" height="27" viewBox="0 0 27 27" fill="none" xmlns="http://www.w3.org/2000/svg">
<path d="M2.6665 8.74369H21.3332V5.41035C21.3332 5.30769 21.2904 5.21369 21.2048 5.12835C21.1195 5.0428 21.0255 5.00002 20.9228 5.00002H3.07684C2.97417 5.00002 2.88017 5.0428 2.79484 5.12835C2.70928 5.21369 2.6665 5.30769 2.6665 5.41035V8.74369ZM3.07684 25.6667C2.40328 25.6667 1.83317 25.4334 1.3665 24.9667C0.899837 24.5 0.666504 23.9299 0.666504 23.2564V5.41035C0.666504 4.7368 0.899837 4.16669 1.3665 3.70002C1.83317 3.23335 2.40328 3.00002 3.07684 3.00002H4.92284V0.179688H6.97417V3.00002H17.0768V0.179688H19.0768V3.00002H20.9228C21.5964 3.00002 22.1665 3.23335 22.6332 3.70002C23.0998 4.16669 23.3332 4.7368 23.3332 5.41035V12.695C23.0134 12.5548 22.6868 12.4415 22.3535 12.355C22.0202 12.2688 21.6801 12.2009 21.3332 12.1514V10.7437H2.6665V23.2564C2.6665 23.359 2.70928 23.453 2.79484 23.5384C2.88017 23.6239 2.97417 23.6667 3.07684 23.6667H11.7462C11.8588 24.0358 11.9952 24.3849 12.1552 24.714C12.3149 25.0431 12.4965 25.3607 12.6998 25.6667H3.07684ZM20.2562 27C18.5913 27 17.1751 26.4162 16.0075 25.2487C14.8399 24.0811 14.2562 22.6649 14.2562 21C14.2562 19.3351 14.8399 17.9189 16.0075 16.7514C17.1751 15.5838 18.5913 15 20.2562 15C21.9213 15 23.3375 15.5838 24.5048 16.7514C25.6724 17.9189 26.2562 19.3351 26.2562 21C26.2562 22.6649 25.6724 24.0811 24.5048 25.2487C23.3375 26.4162 21.9213 27 20.2562 27ZM22.4768 24.0514L23.3075 23.2207L20.8462 20.759V17.077H19.6665V21.241L22.4768 24.0514Z" fill="#1C1B1F"/>
</svg>
