<svg width="34" height="33" viewBox="0 0 34 33" fill="none" xmlns="http://www.w3.org/2000/svg">
<circle cx="17" cy="16.5" r="16.5" fill="#247BB2"/>
<path d="M14.25 9.25H18.75L20.25 10.75H23.25C23.6642 10.75 24 11.0858 24 11.5V22C24 22.4142 23.6642 22.75 23.25 22.75H9.75C9.33579 22.75 9 22.4142 9 22V11.5C9 11.0858 9.33579 10.75 9.75 10.75H12.75L14.25 9.25ZM16.5 21.25C18.9853 21.25 21 19.2353 21 16.75C21 14.2647 18.9853 12.25 16.5 12.25C14.0147 12.25 12 14.2647 12 16.75C12 19.2353 14.0147 21.25 16.5 21.25ZM16.5 19.75C14.8431 19.75 13.5 18.4068 13.5 16.75C13.5 15.0932 14.8431 13.75 16.5 13.75C18.1568 13.75 19.5 15.0932 19.5 16.75C19.5 18.4068 18.1568 19.75 16.5 19.75Z" fill="#E6E7E9"/>
</svg>
