<svg width="24" height="26" viewBox="0 0 24 26" fill="none" xmlns="http://www.w3.org/2000/svg">
<path d="M8.93317 21.305L7.52817 19.9L10.5948 16.8334L7.52817 13.7667L8.93317 12.3617L11.9998 15.4284L15.0665 12.3617L16.4715 13.7667L13.4048 16.8334L16.4715 19.9L15.0665 21.305L11.9998 18.2384L8.93317 21.305ZM3.07684 25.6667C2.40328 25.6667 1.83317 25.4334 1.3665 24.9667C0.899837 24.5 0.666504 23.9299 0.666504 23.2564V5.41035C0.666504 4.7368 0.899837 4.16669 1.3665 3.70002C1.83317 3.23335 2.40328 3.00002 3.07684 3.00002H4.92284V0.179688H6.97417V3.00002H17.0768V0.179688H19.0768V3.00002H20.9228C21.5964 3.00002 22.1665 3.23335 22.6332 3.70002C23.0998 4.16669 23.3332 4.7368 23.3332 5.41035V23.2564C23.3332 23.9299 23.0998 24.5 22.6332 24.9667C22.1665 25.4334 21.5964 25.6667 20.9228 25.6667H3.07684ZM3.07684 23.6667H20.9228C21.0255 23.6667 21.1195 23.6239 21.2048 23.5384C21.2904 23.453 21.3332 23.359 21.3332 23.2564V10.7437H2.6665V23.2564C2.6665 23.359 2.70928 23.453 2.79484 23.5384C2.88017 23.6239 2.97417 23.6667 3.07684 23.6667ZM2.6665 8.74369H21.3332V5.41035C21.3332 5.30769 21.2904 5.21369 21.2048 5.12835C21.1195 5.0428 21.0255 5.00002 20.9228 5.00002H3.07684C2.97417 5.00002 2.88017 5.0428 2.79484 5.12835C2.70928 5.21369 2.6665 5.30769 2.6665 5.41035V8.74369Z" fill="#1C1B1F"/>
</svg>
