<svg width="28" height="29" viewBox="0 0 28 29" fill="none" xmlns="http://www.w3.org/2000/svg">
<path d="M3.07684 25.6667C2.40328 25.6667 1.83317 25.4334 1.3665 24.9667C0.899837 24.5 0.666504 23.9299 0.666504 23.2564V5.41035C0.666504 4.7368 0.899837 4.16669 1.3665 3.70002C1.83317 3.23335 2.40328 3.00002 3.07684 3.00002H4.92284V0.179688H6.97417V3.00002H17.0768V0.179688H19.0768V3.00002H20.9228C21.5964 3.00002 22.1665 3.23335 22.6332 3.70002C23.0998 4.16669 23.3332 4.7368 23.3332 5.41035V13.205H21.3332V10.7437H2.6665V23.2564C2.6665 23.359 2.70928 23.453 2.79484 23.5384C2.88017 23.6239 2.97417 23.6667 3.07684 23.6667H12.1922V25.6667H3.07684ZM21.3332 28.795C19.8136 28.795 18.4761 28.3279 17.3205 27.3937C16.165 26.4595 15.4145 25.2855 15.0692 23.8717H16.7255C17.0486 24.8581 17.6243 25.6604 18.4525 26.2784C19.2807 26.8961 20.2409 27.205 21.3332 27.205C22.6818 27.205 23.8309 26.7302 24.7805 25.7807C25.7301 24.8311 26.2048 23.682 26.2048 22.3334C26.2048 20.9847 25.7301 19.8356 24.7805 18.886C23.8309 17.9365 22.6818 17.4617 21.3332 17.4617C20.6032 17.4617 19.9134 17.6189 19.2638 17.9334C18.6143 18.2478 18.0485 18.6717 17.5665 19.205H19.7948V20.795H14.8715V15.8717H16.4615V18.054C17.0784 17.3991 17.8083 16.8717 18.6512 16.4717C19.4938 16.0717 20.3878 15.8717 21.3332 15.8717C23.1178 15.8717 24.641 16.5025 25.9025 17.764C27.1641 19.0256 27.7948 20.5487 27.7948 22.3334C27.7948 24.118 27.1641 25.6411 25.9025 26.9027C24.641 28.1642 23.1178 28.795 21.3332 28.795ZM2.6665 8.74369H21.3332V5.41035C21.3332 5.30769 21.2904 5.21369 21.2048 5.12835C21.1195 5.0428 21.0255 5.00002 20.9228 5.00002H3.07684C2.97417 5.00002 2.88017 5.0428 2.79484 5.12835C2.70928 5.21369 2.6665 5.30769 2.6665 5.41035V8.74369Z" fill="#1C1B1F"/>
</svg>
