<svg width="24" height="26" viewBox="0 0 24 26" fill="none" xmlns="http://www.w3.org/2000/svg">
<path d="M10.6013 20.9813L6.32964 16.7096L7.77564 15.2636L10.6013 18.0893L16.227 12.4636L17.673 13.9096L10.6013 20.9813ZM3.0783 25.6686C2.40475 25.6686 1.83464 25.4353 1.36797 24.9686C0.901302 24.502 0.667969 23.9319 0.667969 23.2583V5.41231C0.667969 4.73875 0.901302 4.16864 1.36797 3.70197C1.83464 3.23531 2.40475 3.00197 3.0783 3.00197H4.9243V0.181641H6.97564V3.00197H17.0783V0.181641H19.0783V3.00197H20.9243C21.5979 3.00197 22.168 3.23531 22.6346 3.70197C23.1013 4.16864 23.3346 4.73875 23.3346 5.41231V23.2583C23.3346 23.9319 23.1013 24.502 22.6346 24.9686C22.168 25.4353 21.5979 25.6686 20.9243 25.6686H3.0783ZM3.0783 23.6686H20.9243C21.027 23.6686 21.121 23.6259 21.2063 23.5403C21.2919 23.455 21.3346 23.361 21.3346 23.2583V10.7456H2.66797V23.2583C2.66797 23.361 2.71075 23.455 2.7963 23.5403C2.88164 23.6259 2.97564 23.6686 3.0783 23.6686ZM2.66797 8.74564H21.3346V5.41231C21.3346 5.30964 21.2919 5.21564 21.2063 5.13031C21.121 5.04475 21.027 5.00197 20.9243 5.00197H3.0783C2.97564 5.00197 2.88164 5.04475 2.7963 5.13031C2.71075 5.21564 2.66797 5.30964 2.66797 5.41231V8.74564Z" fill="#050505"/>
</svg>
