<svg width="24" height="25" viewBox="0 0 24 25" fill="none" xmlns="http://www.w3.org/2000/svg">
<path d="M20.5 21.5H20V5C20.007 4.80114 19.973 4.60296 19.9001 4.41781C19.8271 4.23267 19.7169 4.06451 19.5762 3.9238C19.4355 3.7831 19.2673 3.67286 19.0822 3.59995C18.897 3.52704 18.6989 3.49302 18.5 3.5H15V2.5C15 2.23478 14.8946 1.98043 14.7071 1.79289C14.5196 1.60536 14.2652 1.5 14 1.5H10C9.73478 1.5 9.48043 1.60536 9.29289 1.79289C9.10536 1.98043 9 2.23478 9 2.5V3.5H5.5C5.30114 3.49302 5.10296 3.52704 4.91781 3.59995C4.73267 3.67286 4.56451 3.7831 4.4238 3.9238C4.2831 4.06451 4.17286 4.23267 4.09995 4.41781C4.02704 4.60296 3.99302 4.80114 4 5V21.5H3.5C3.23478 21.5 2.98043 21.6054 2.79289 21.7929C2.60536 21.9804 2.5 22.2348 2.5 22.5C2.5 22.7652 2.60536 23.0196 2.79289 23.2071C2.98043 23.3946 3.23478 23.5 3.5 23.5H20.5C20.7652 23.5 21.0196 23.3946 21.2071 23.2071C21.3946 23.0196 21.5 22.7652 21.5 22.5C21.5 22.2348 21.3946 21.9804 21.2071 21.7929C21.0196 21.6054 20.7652 21.5 20.5 21.5ZM10.5 4H11.5V3C11.5 2.86739 11.5527 2.74021 11.6464 2.64645C11.7402 2.55268 11.8674 2.5 12 2.5C12.1326 2.5 12.2598 2.55268 12.3536 2.64645C12.4473 2.74021 12.5 2.86739 12.5 3V4H13.5C13.6326 4 13.7598 4.05268 13.8536 4.14645C13.9473 4.24021 14 4.36739 14 4.5C14 4.63261 13.9473 4.75979 13.8536 4.85355C13.7598 4.94732 13.6326 5 13.5 5H12.5V6C12.5 6.13261 12.4473 6.25979 12.3536 6.35355C12.2598 6.44732 12.1326 6.5 12 6.5C11.8674 6.5 11.7402 6.44732 11.6464 6.35355C11.5527 6.25979 11.5 6.13261 11.5 6V5H10.5C10.3674 5 10.2402 4.94732 10.1464 4.85355C10.0527 4.75979 10 4.63261 10 4.5C10 4.36739 10.0527 4.24021 10.1464 4.14645C10.2402 4.05268 10.3674 4 10.5 4ZM18 21.5H13.5V18H10.5V21.5H6V5.5H9V6.5C9 6.76522 9.10536 7.01957 9.29289 7.20711C9.48043 7.39464 9.73478 7.5 10 7.5H14C14.2652 7.5 14.5196 7.39464 14.7071 7.20711C14.8946 7.01957 15 6.76522 15 6.5V5.5H18V21.5Z" fill="#6D6D6D"/>
<path d="M11 9H8V12H11V9Z" fill="#6D6D6D"/>
<path d="M16 9H13V12H16V9Z" fill="#6D6D6D"/>
<path d="M11 13.5H8V16.5H11V13.5Z" fill="#6D6D6D"/>
<path d="M16 13.5H13V16.5H16V13.5Z" fill="#6D6D6D"/>
</svg>
