<svg width="24" height="25" viewBox="0 0 24 25" fill="none" xmlns="http://www.w3.org/2000/svg">
<mask id="mask0_57_889" style="mask-type:alpha" maskUnits="userSpaceOnUse" x="0" y="0" width="24" height="25">
<rect y="0.5" width="24" height="24" fill="#D9D9D9"/>
</mask>
<g mask="url(#mask0_57_889)">
<path d="M12.0019 12.3652C12.4994 12.3652 12.9247 12.1881 13.2779 11.8338C13.6312 11.4794 13.8079 11.0535 13.8079 10.556C13.8079 10.0585 13.6307 9.63308 13.2764 9.27975C12.9221 8.92658 12.4961 8.75 11.9984 8.75C11.5009 8.75 11.0756 8.92717 10.7224 9.2815C10.3691 9.63583 10.1924 10.0618 10.1924 10.5595C10.1924 11.057 10.3696 11.4823 10.7239 11.8355C11.0782 12.1887 11.5042 12.3652 12.0019 12.3652ZM12.0001 20.0135C13.9565 18.2622 15.4536 16.5823 16.4914 14.974C17.5292 13.3657 18.0481 11.957 18.0481 10.748C18.0481 8.925 17.469 7.42633 16.3106 6.252C15.1523 5.07767 13.7155 4.4905 12.0001 4.4905C10.2848 4.4905 8.84798 5.07767 7.68965 6.252C6.53131 7.42633 5.95215 8.925 5.95215 10.748C5.95215 11.957 6.47107 13.3657 7.5089 14.974C8.54673 16.5823 10.0438 18.2622 12.0001 20.0135ZM12.0001 22.0095C9.48348 19.8288 7.59631 17.7994 6.33865 15.9212C5.08098 14.0429 4.45215 12.3185 4.45215 10.748C4.45215 8.44033 5.19857 6.57208 6.6914 5.14325C8.1844 3.71442 9.95398 3 12.0001 3C14.0463 3 15.8159 3.71442 17.3089 5.14325C18.8017 6.57208 19.5481 8.44033 19.5481 10.748C19.5481 12.3185 18.9193 14.0429 17.6616 15.9212C16.404 17.7994 14.5168 19.8288 12.0001 22.0095Z" fill="#050505"/>
</g>
</svg>
