<svg width="25" height="24" viewBox="0 0 25 24" fill="none" xmlns="http://www.w3.org/2000/svg">
<path d="M7.54117 20.8242L2.25 22L3.42581 16.7088C2.67544 15.3056 2.25 13.7025 2.25 12C2.25 6.47715 6.72715 2 12.25 2C17.7728 2 22.25 6.47715 22.25 12C22.25 17.5228 17.7728 22 12.25 22C10.5475 22 8.9444 21.5746 7.54117 20.8242ZM7.83075 18.711L8.48428 19.0605C9.63248 19.6745 10.9155 20 12.25 20C16.6683 20 20.25 16.4183 20.25 12C20.25 7.58172 16.6683 4 12.25 4C7.83172 4 4.25 7.58172 4.25 12C4.25 13.3345 4.57549 14.6175 5.18949 15.7657L5.53896 16.4192L4.88416 19.3658L7.83075 18.711Z" fill="#B4B4B4"/>
</svg>
