<svg width="28" height="20" viewBox="0 0 28 20" fill="none" xmlns="http://www.w3.org/2000/svg">
<path d="M16.3331 10.9485C15.4015 10.9485 14.6131 10.6258 13.9678 9.98048C13.3224 9.33514 12.9998 8.5467 12.9998 7.61514C12.9998 6.68359 13.3224 5.89514 13.9678 5.24981C14.6131 4.60448 15.4015 4.28181 16.3331 4.28181C17.2646 4.28181 18.0531 4.60448 18.6984 5.24981C19.3438 5.89514 19.6664 6.68359 19.6664 7.61514C19.6664 8.5467 19.3438 9.33514 18.6984 9.98048C18.0531 10.6258 17.2646 10.9485 16.3331 10.9485ZM7.53809 15.0768C6.87543 15.0768 6.30809 14.8408 5.83609 14.3688C5.36409 13.8968 5.12809 13.3294 5.12809 12.6665V2.56381C5.12809 1.90114 5.36409 1.33381 5.83609 0.861808C6.30809 0.389808 6.87543 0.153809 7.53809 0.153809H25.1278C25.7907 0.153809 26.3581 0.389808 26.8301 0.861808C27.3021 1.33381 27.5381 1.90114 27.5381 2.56381V12.6665C27.5381 13.3294 27.3021 13.8968 26.8301 14.3688C26.3581 14.8408 25.7907 15.0768 25.1278 15.0768H7.53809ZM9.53809 13.0768H23.1281C23.1281 12.4119 23.3641 11.8439 23.8361 11.3728C24.3081 10.9019 24.8754 10.6665 25.5381 10.6665V4.56381C24.8732 4.56381 24.3053 4.32781 23.8344 3.85581C23.3635 3.38381 23.1281 2.81648 23.1281 2.15381H9.53809C9.53809 2.8187 9.30209 3.38659 8.83009 3.85747C8.35809 4.32836 7.79076 4.56381 7.12809 4.56381V10.6665C7.79298 10.6665 8.36087 10.9025 8.83176 11.3745C9.30265 11.8465 9.53809 12.4139 9.53809 13.0768ZM23.5638 19.7435H2.87176C2.20887 19.7435 1.64143 19.5075 1.16943 19.0355C0.697426 18.5635 0.461426 17.996 0.461426 17.3331V4.12814H2.46143V17.3331C2.46143 17.4356 2.50409 17.5296 2.58943 17.6151C2.67498 17.7007 2.76909 17.7435 2.87176 17.7435H23.5638V19.7435ZM7.53809 13.0768H7.12809V2.15381H7.53809C7.42698 2.15381 7.33087 2.19436 7.24976 2.27548C7.16865 2.35659 7.12809 2.4527 7.12809 2.56381V12.6665C7.12809 12.7776 7.16865 12.8737 7.24976 12.9548C7.33087 13.0361 7.42698 13.0768 7.53809 13.0768Z" fill="#050505"/>
</svg>
