<svg width="20" height="18" viewBox="0 0 20 18" fill="none" xmlns="http://www.w3.org/2000/svg">
<path d="M10.1709 14.1152C11.3184 14.1152 12.2911 13.7163 13.0891 12.9183C13.8871 12.1202 14.2861 11.1475 14.2861 10C14.2861 8.8525 13.8871 7.87975 13.0891 7.08175C12.2911 6.28375 11.3184 5.88475 10.1709 5.88475C9.0234 5.88475 8.05065 6.28375 7.25265 7.08175C6.45465 7.87975 6.05565 8.8525 6.05565 10C6.05565 11.1475 6.45465 12.1202 7.25265 12.9183C8.05065 13.7163 9.0234 14.1152 10.1709 14.1152ZM10.1709 12.6155C9.4324 12.6155 8.8119 12.3642 8.3094 11.8615C7.80673 11.359 7.5554 10.7385 7.5554 10C7.5554 9.2615 7.80673 8.641 8.3094 8.1385C8.8119 7.63583 9.4324 7.3845 10.1709 7.3845C10.9094 7.3845 11.5299 7.63583 12.0324 8.1385C12.5351 8.641 12.7864 9.2615 12.7864 10C12.7864 10.7385 12.5351 11.359 12.0324 11.8615C11.5299 12.3642 10.9094 12.6155 10.1709 12.6155ZM2.47865 17.5C1.97348 17.5 1.5459 17.325 1.1959 16.975C0.845898 16.625 0.670898 16.1974 0.670898 15.6923V4.30775C0.670898 3.80258 0.845898 3.375 1.1959 3.025C1.5459 2.675 1.97348 2.5 2.47865 2.5H5.5324L7.3824 0.5H12.9594L14.8094 2.5H17.8631C18.3683 2.5 18.7959 2.675 19.1459 3.025C19.4959 3.375 19.6709 3.80258 19.6709 4.30775V15.6923C19.6709 16.1974 19.4959 16.625 19.1459 16.975C18.7959 17.325 18.3683 17.5 17.8631 17.5H2.47865ZM2.47865 16H17.8631C17.953 16 18.0267 15.9712 18.0844 15.9135C18.1421 15.8558 18.1709 15.7821 18.1709 15.6923V4.30775C18.1709 4.21792 18.1421 4.14417 18.0844 4.0865C18.0267 4.02883 17.953 4 17.8631 4H14.1401L12.3054 2H8.0364L6.20165 4H2.47865C2.38882 4 2.31507 4.02883 2.2574 4.0865C2.19973 4.14417 2.1709 4.21792 2.1709 4.30775V15.6923C2.1709 15.7821 2.19973 15.8558 2.2574 15.9135C2.31507 15.9712 2.38882 16 2.47865 16Z" fill="#F2F2F2"/>
</svg>
