<svg width="26" height="26" viewBox="0 0 26 26" fill="none" xmlns="http://www.w3.org/2000/svg">
<path d="M9.3937 15.614L12.9987 13.427L16.6037 15.614L15.6474 11.514L18.8447 8.7577L14.637 8.4037L12.9987 4.53736L11.3604 8.4037L7.1527 8.7577L10.35 11.514L9.3937 15.614ZM0.332031 25.05V2.74237C0.332031 2.06881 0.565365 1.4987 1.03203 1.03203C1.4987 0.565365 2.06881 0.332031 2.74236 0.332031H23.255C23.9286 0.332031 24.4987 0.565365 24.9654 1.03203C25.432 1.4987 25.6654 2.06881 25.6654 2.74237V17.9217C25.6654 18.5953 25.432 19.1654 24.9654 19.632C24.4987 20.0987 23.9286 20.332 23.255 20.332H5.05003L0.332031 25.05ZM4.1987 18.332H23.255C23.3577 18.332 23.4517 18.2893 23.537 18.2037C23.6226 18.1184 23.6654 18.0244 23.6654 17.9217V2.74237C23.6654 2.6397 23.6226 2.5457 23.537 2.46036C23.4517 2.37481 23.3577 2.33203 23.255 2.33203H2.74236C2.6397 2.33203 2.5457 2.37481 2.46036 2.46036C2.37481 2.5457 2.33203 2.6397 2.33203 2.74237V20.1784L4.1987 18.332Z" fill="#1C1B1F"/>
</svg>
