<svg width="20" height="20" viewBox="0 0 20 20" fill="none" xmlns="http://www.w3.org/2000/svg">
<path d="M9.48016 1.49914C9.52246 1.39597 9.59449 1.30771 9.68708 1.2456C9.77968 1.18348 9.88866 1.15031 10.0002 1.15031C10.1117 1.15031 10.2206 1.18348 10.3132 1.2456C10.4058 1.30771 10.4779 1.39597 10.5202 1.49914L12.6452 6.61014C12.6849 6.70577 12.7503 6.78858 12.8341 6.84945C12.9179 6.91032 13.0169 6.94689 13.1202 6.95514L18.6382 7.39714C19.1372 7.43714 19.3392 8.06014 18.9592 8.38514L14.7552 11.9871C14.6766 12.0543 14.6181 12.1418 14.586 12.2401C14.5539 12.3383 14.5494 12.4435 14.5732 12.5441L15.8582 17.9291C15.884 18.0372 15.8772 18.1504 15.8387 18.2546C15.8002 18.3588 15.7317 18.4493 15.6418 18.5145C15.5519 18.5798 15.4447 18.617 15.3337 18.6214C15.2227 18.6257 15.1129 18.5971 15.0182 18.5391L10.2932 15.6541C10.2049 15.6002 10.1036 15.5717 10.0002 15.5717C9.89678 15.5717 9.79539 15.6002 9.70716 15.6541L4.98216 18.5401C4.88742 18.5981 4.77762 18.6267 4.66662 18.6224C4.55562 18.618 4.44841 18.5808 4.35853 18.5155C4.26865 18.4503 4.20013 18.3598 4.16162 18.2556C4.12311 18.1514 4.11634 18.0382 4.14216 17.9301L5.42716 12.5441C5.451 12.4435 5.44661 12.3383 5.4145 12.24C5.38239 12.1418 5.3238 12.0543 5.24516 11.9871L1.04116 8.38514C0.956507 8.31297 0.895171 8.21731 0.864924 8.11026C0.834677 8.0032 0.836879 7.88959 0.871253 7.78379C0.905627 7.67799 0.970625 7.58477 1.05802 7.51594C1.14541 7.44711 1.25126 7.40577 1.36216 7.39714L6.88016 6.95514C6.98341 6.94689 7.08239 6.91032 7.16619 6.84945C7.25 6.78858 7.31539 6.70577 7.35516 6.61014L9.48016 1.49914Z" stroke="#FFC700" stroke-width="1.5" stroke-linecap="round" stroke-linejoin="round"/>
</svg>
