<svg width="25" height="24" viewBox="0 0 25 24" fill="none" xmlns="http://www.w3.org/2000/svg">
<path d="M4.25 22C4.25 17.5817 7.83172 14 12.25 14C16.6683 14 20.25 17.5817 20.25 22H18.25C18.25 18.6863 15.5637 16 12.25 16C8.93629 16 6.25 18.6863 6.25 22H4.25ZM12.25 13C8.935 13 6.25 10.315 6.25 7C6.25 3.685 8.935 1 12.25 1C15.565 1 18.25 3.685 18.25 7C18.25 10.315 15.565 13 12.25 13ZM12.25 11C14.46 11 16.25 9.21 16.25 7C16.25 4.79 14.46 3 12.25 3C10.04 3 8.25 4.79 8.25 7C8.25 9.21 10.04 11 12.25 11Z" fill="#B4B4B4"/>
</svg>
