<svg width="25" height="24" viewBox="0 0 25 24" fill="none" xmlns="http://www.w3.org/2000/svg">
<path d="M9.21456 18C8.97194 19.6961 7.51324 21 5.75 21C3.98676 21 2.52806 19.6961 2.28544 18H1.25V6C1.25 5.44772 1.69772 5 2.25 5H16.25C16.8023 5 17.25 5.44772 17.25 6V8H20.25L23.25 12.0557V18H21.2146C20.9719 19.6961 19.5132 21 17.75 21C15.9868 21 14.5281 19.6961 14.2854 18H9.21456ZM15.25 7H3.25V15.0505C3.88526 14.4022 4.77066 14 5.75 14C7.1462 14 8.35145 14.8175 8.91318 16H14.5868C14.7545 15.647 14.9796 15.3264 15.25 15.0505V7ZM17.25 13H21.25V12.715L19.2417 10H17.25V13ZM17.75 19C18.4031 19 18.9587 18.5826 19.1646 18C19.2199 17.8436 19.25 17.6753 19.25 17.5C19.25 16.6716 18.5784 16 17.75 16C16.9216 16 16.25 16.6716 16.25 17.5C16.25 17.6753 16.2801 17.8436 16.3354 18C16.5413 18.5826 17.0969 19 17.75 19ZM7.25 17.5C7.25 16.6716 6.57843 16 5.75 16C4.92157 16 4.25 16.6716 4.25 17.5C4.25 17.6753 4.28008 17.8436 4.33535 18C4.54127 18.5826 5.09689 19 5.75 19C6.40311 19 6.95873 18.5826 7.16465 18C7.21992 17.8436 7.25 17.6753 7.25 17.5Z" fill="#B2B3B9"/>
</svg>
