<svg width="22" height="17" viewBox="0 0 22 17" fill="none" xmlns="http://www.w3.org/2000/svg">
<path d="M16 5.7L21.2133 2.05071C21.4395 1.89235 21.7513 1.94737 21.9096 2.1736C21.9684 2.25764 22 2.35774 22 2.46033V14.5397C22 14.8158 21.7761 15.0397 21.5 15.0397C21.3974 15.0397 21.2973 15.0081 21.2133 14.9493L16 11.3V15.5C16 16.0523 15.5523 16.5 15 16.5H1C0.44772 16.5 0 16.0523 0 15.5V1.5C0 0.94772 0.44772 0.5 1 0.5H15C15.5523 0.5 16 0.94772 16 1.5V5.7ZM16 8.8587L20 11.6587V5.34131L16 8.1413V8.8587ZM2 2.5V14.5H14V2.5H2Z" fill="#363636"/>
</svg>
